# xmcd
#
# Track frame offsets:
#	150
#	18866
#	37365
#	57530
#	76862
#	94707
#	111163
#	132084
#	149578
#	170654
#	190517
#	210034
#	231364
#	248931
#	280052
#
# Disc length: 4199 seconds
#
# Revision: 0
# Processed by: cddbd v1.5.2PL0 Copyright (c) Steve Scherf et al.
# Submitted via: EasyCDDAExtractor 10.0.3.1
#
DISCID=cf10650f
DTITLE=JAGODA - Pewność Mam
DYEAR=2001
DGENRE=Pop
TTITLE0=Sobie Ufam
TTITLE1=Wróżka
TTITLE2=Wiele Za Niewiele
TTITLE3=Nim Zrobisz Krok
TTITLE4=Powrócą Dni
TTITLE5=Powiedz To!
TTITLE6=Piosenka Spontaniczna
TTITLE7=Nic Nie Może Się Przydażyć
TTITLE8=Pewność Mam
TTITLE9=Iskra
TTITLE10=Niech Ktoś Mi Powie!
TTITLE11=Chwilą Jest Noc, Chwilą Jest Dzień
TTITLE12=Egoizm
TTITLE13=To Nie Podoba Się Mi
TTITLE14=DATA
EXTD=
EXTT0=
EXTT1=
EXTT2=
EXTT3=
EXTT4=
EXTT5=
EXTT6=
EXTT7=
EXTT8=
EXTT9=
EXTT10=
EXTT11=
EXTT12=
EXTT13=
EXTT14=
PLAYORDER=
